<?xml version="1.0" encoding="UTF-8"?>
<svg version="1.1" viewBox="0 0 2048 665" width="1280" height="1280" xmlns="http://www.w3.org/2000/svg">
<path transform="translate(427,96)" d="m0 0h181l5 8 3 11 1 6v12l-3 17-4 9-2 1-154 1-12 17-14 20-14 19-12 17 4-1 176-8h22l3 3 4 10 1 5v24l-3 10-5 9-2 1-19 1-178 3 12 12 7 8 27 27 7 8 4 4h145l2 2 3 10 1 12v30l-3 10-3 2-39 1-144 2-13-17-14-19-15-20-14-19-12-16-42-57-11-15 2-4 8-10 20-26 42-54 10-13 11-14 10-13 14-18z" fill="#0285BC"/>
<path transform="translate(1589,83)" d="m0 0h16l16 3 13 5 15 10 12 11 10 14 6 13 5 16v3l-10 1h-26l-5-8-6-10-7-8-12-7-10-3h-18l-10 3-11 7-10 11-6 13-3 12h109l14 1 9 5 6 10 5 16 13 55 22 90 13 54 5 22v2l-3 1-17 1h-18l-1-6-3 1-2 4-2 1h-101l-10-4-7-8-3-9-1-131 4-10 7-8 6-3 13-1h56l-10-38-1-4-101-1v217l-38 1-1-2v-216h-14v-39h14v-7l5-20 5-11 6-11 8-10 9-9 15-10 15-6zm27 208-1 1v89l1 7h63l6-3 5-6 2-8-1-11-18-69z" fill="#EC8437"/>
<path transform="translate(1366,167)" d="m0 0 15 1 11 4 10 7 5 4 8-6 12-6 5-1h19l10 3 10 6 8 8 8 15 1 3 1 105v115l-1 1h-37l-1-1-1-207-5-5-6-4h-10l-8 5-4 5-1 4v203l-32 1-6-1-2-209-9-8-7-2-8 1-8 6-5 7-2 7-1 198-1 1h-29l-8-1-1-90v-165l1-2h36l2 1v10l19-10z" fill="#EC8437"/>
<path transform="translate(1754,83)" d="m0 0h38v85h49l10 3 6 4 5 5 5 9 4 13 32 127 14 54 1 6v15l-4 10-5 6-7 4-8 2h-139l-1-2-1-339zm39 124-1 1v177l1 2h82l3-1-2-11-15-62-18-74-5-21-3-6-4-4-2-1z" fill="#EC8437"/>
<path transform="translate(931,84)" d="m0 0h38l1 1v84h53l10 3 6 4 7 7 5 11 19 83 16 70 15 67 3 12-1 1h-37l-2-3-13-54-21-87-13-54-4-18-1-2-42-1v219h-38l-1-253z" fill="#EC8437"/>
<path transform="translate(1206,169)" d="m0 0h12l10 4 9 6 7 8 7 14 16 60 6 24 8 31v11l-4 6-5 4-7 2-96 1-15 46 129 1 1 1 1 38-2 1h-150l-12-5-7-8-3-9v-13l4-14 12-37 12-36 21-66 12-37 7-14 9-10 8-6zm5 39-4 8-16 54-9 30v2h52l2-2-17-74-5-17z" fill="#EC8336"/>
<path transform="translate(838,84)" d="m0 0h91v4h-10v35l-69 1-4 11-21 71-16 54-21 71-16 54-1 2 147 1 1 38-1 1h-173l-8-4-7-8-4-9v-7l7-25 16-54 9-30 16-53 16-54 13-43 8-26 8-16 7-9 8-4z" fill="#EC8437"/>
<path transform="translate(1648,500)" d="m0 0h66l20 1 10 3 8 5 5 4 6 10 3 11v12l-2 9-6 10-7 7-10 5-12 3 5 4 12 11 9 12 14 22 8 12v2l-11 1h-20l-5-3-10-14-8-12-11-16-9-10-6-3-20-3v60l-3 1h-26l-1-27v-116zm29 24-1 36 1 1h38l11-2 6-4 3-5 1-12-4-9-7-4-11-1z" fill="#0285BC"/>
<path transform="translate(869,500)" d="m0 0h28l9 15 14 22 14 23 12 19 9 14v2h2l-1-5v-90h26l1 1v142l-15 1h-13l-7-9-14-23-14-22-15-24-9-14-1 91-1 1h-25l-1-2v-141z" fill="#0285BC"/>
<path transform="translate(1231,500)" d="m0 0h27l14 22 14 23 15 24 16 25v-93l1-1h26v143l-10 1h-17l-4-4-11-17-13-21-12-19-15-24-4-6v-2h-2l1 92-2 1h-24l-1-1v-142z" fill="#0486BC"/>
<path transform="translate(1074,497)" d="m0 0h14l13 2 11 3 10 5 10 9 7 10 4 11v3l-21 4-7 1-3-5-6-9-10-6-7-2h-15l-13 4-8 6-6 7-4 10-3 16 1 17 4 15 6 10 8 7 9 4 4 1h19l12-4 12-6v-19h-32l-1-1v-23h63v57l-5 5-15 8-16 6-18 3h-17l-17-3-12-5-13-9-8-9-8-14-5-15-1-7v-25l2-11 5-13 7-12 7-8 12-9 14-6z" fill="#0285BC"/>
<path transform="translate(1839,497)" d="m0 0h12l14 2 14 5 9 7 6 7 4 8 2 8v7l-15 1h-14l-4-10-3-5-9-4h-23l-9 5-2 3v9l5 5 12 5 35 10 12 5 10 8 6 9 4 13v12l-4 12-5 9-8 8-12 6-11 3-7 1h-23l-15-3-12-6-10-9-6-10-4-11-1-9 6-2 22-2 2 7 5 10 7 6 11 4h14l10-3 7-5 3-6 1-5-3-9-6-4-35-10-15-5-9-6-6-5-7-11-2-6v-16l5-12 9-10 10-6 14-4z" fill="#0285BC"/>
<path transform="translate(733,500)" d="m0 0h106l1 1v22l-1 1h-78l1 32h71l2 2-1 22h-73v40h82v23l-70 1h-40l-1-1v-142z" fill="#0285BC"/>
<path transform="translate(1377,500)" d="m0 0h106v24h-78l1 32h71l1 1v22l-1 1h-72v40h81v23l-64 1h-45l-1-1v-142z" fill="#0285BC"/>
<path transform="translate(1512,500)" d="m0 0h107v23l-1 1h-78v33l22-1h51l1 1-1 23h-73v40h82v23l-65 1h-45l-1-95v-48z" fill="#0285BC"/>
<path transform="translate(252,207)" d="m0 0h16l12 3 8 4 11 9 2 2-1 4-10 13-9 12-1 4 13 18 6 9-1 4-10 8-12 5-9 2h-15l-12-3-11-6-8-7-7-10-5-13v-19l4-12 8-11 9-8 10-5z" fill="#EC8336"/>
<path transform="translate(241,91)" d="m0 0h39l19 3 21 6 22 9 19 11 12 9-1 5-2 2-4-1-16-11-19-10-19-7-21-5-13-2h-37l-19 3-21 6-20 9-16 9-11 8-13 11-9 9-13 17-9 16-5 10-7 21-3 17-1 8v20l2 18 6 23 10 22 11 17 9 11 10 11 11 9 12 9 22 12 15 6 19 5 17 3 13 1h18l15-1 23-5 16-5 20-9 18-11 5-3 3 4-1 4-10 7-16 9-18 8-24 7-16 3-10 1h-29l-21-3-23-6-20-8-18-10-14-10-11-9-14-14-10-13-10-16-9-19-6-20-3-18-1-12v-17l2-18 5-19 6-16 8-16 8-12 10-13 11-12 8-7 17-13 18-10 19-8 20-6z" fill="#FEA963"/>
<path transform="translate(1172,500)" d="m0 0h28l1 1v142l-2 1h-26l-1-1z" fill="#0285BC"/>
<path transform="translate(250,103)" d="m0 0h23l21 3 23 6 19 8 14 8 11 8 5 5-2 4-5-2-16-11-15-8-19-7-21-5-19-2h-20l-24 3-21 6-16 7-16 9-14 10-13 12-10 11-9 13-9 17-6 16-4 17-2 18v18l5 27 8 21 10 18 11 14 9 10 13 11 15 10 17 9 18 7 21 5 15 2h27l24-4 16-5 21-9 14-8 9-6 4 2-1 4-17 11-16 8-12 5-24 6-14 2h-37l-19-3-18-5-19-8-16-9-16-12-13-12-10-11-9-13-9-16-6-15-5-17-2-12-1-11v-15l2-19 5-19 9-21 8-14 13-17 6-7 8-7 9-8 14-9 16-9 18-7 25-6z" fill="#FEAD68"/>
<path transform="translate(243,115)" d="m0 0h34l19 3 17 5 12 5 17 9 14 10 3 4-2 3-4-1-15-10-19-10-21-7-15-3-22-2-19 1-20 4-21 7-16 8-11 7-12 9-15 15-11 16-9 17-6 19-2 9-1 9v29l4 20 6 16 9 17 10 14 6 7 2 1v2l4 2 6 5v2l4 2 15 10 21 10 19 6 16 3 10 1h22l20-3 21-6 16-7 17-10 6-4 3 3-2 4-15 10-21 10-19 6-23 4h-31l-23-4-21-7-20-10-17-12-12-11-8-8-12-17-7-12-8-20-4-18-1-6v-30l3-18 6-18 8-16 9-14 9-11 7-8 8-7 14-10 16-9 16-7 23-6z" fill="#FEAE6B"/>
<path transform="translate(250,126)" d="m0 0h22l15 2 16 4 13 5 16 8 11 7 9 7-3 5-5-2-10-8-17-9-16-6-18-4-23-2-17 1-21 4-19 7-17 9-16 12-5 4-11 14-8 11-8 16-6 21-2 15v18l3 19 5 15 8 16 7 11 11 12 1 3 4 2 8 7 14 9 16 8 17 6 14 3 7 1h29l18-3 17-5 19-9 11-7 4-3 4 1 2 3-14 10-19 10-18 6-15 3-10 1h-29l-14-2-21-6-16-7-16-10-13-11-7-6-11-14-6-10-8-15-5-14-3-13-1-8v-23l3-20 6-17 8-16 10-14 11-13 10-9 15-10 16-8 16-6 16-4z" fill="#FEAF6D"/>
<path transform="translate(256,138)" d="m0 0 26 1 17 4 16 6 16 9 13 10-1 4-1 2-4-2-11-8-16-9-18-6-14-3-10-1h-19l-16 2-18 5-19 9-14 10-13 12-8 10-8 13-6 14-4 14-1 7v29l3 14 4 12 8 16 10 13 13 13 13 9 17 9 17 6 14 3 9 1h20l25-5 20-8 14-8 6-5 4 1 2 4-14 9-14 8-16 6-25 5h-24l-21-3-15-5-19-9-12-8-10-9-9-9v-2h-2l-9-13-8-15-5-14-3-13-1-21 2-19 5-17 6-13 7-12 8-10 15-15 14-10 16-8 13-5 18-4z" fill="#FEAF6D"/>
<path transform="translate(252,149)" d="m0 0h16l21 3 15 5 14 7 12 8 6 5v5h-4l-13-9-15-8-15-5-17-3h-26l-16 3-19 7-12 7-13 10-3 1-2 4-8 9-8 13-7 18-3 15-1 15 2 16 6 18 8 15 8 10 12 12 15 10 15 7 9 3 13 3 11 1h14l16-2 14-4 13-5 15-9 5-4 3 1 1 4-10 8-21 11-17 5-13 2h-28l-17-3-20-8-17-10-11-9-7-8-8-10-9-16-5-14-3-13v-29l4-17 8-18 8-12 11-13 12-10 13-8 18-8 15-4z" fill="#FEB06E"/>
<path transform="translate(250,161)" d="m0 0h19l18 3 12 4 16 8 11 8 4 5-3 4-4-2-10-8-16-8-16-5-6-1h-30l-17 4-13 5-14 9-12 11-8 10-8 15-4 13-2 12v15l3 16 6 15 9 14 14 14 14 9 13 6 14 4 19 2 20-2 17-5 16-8 11-8 4 2v4l-16 11-15 7-14 4-9 1h-30l-17-4-16-7-12-8-12-11-9-10-8-13-6-16-3-15v-19l3-15 5-13 7-13 10-13 8-8 15-10 13-6 17-5z" fill="#FEAF6D"/>
<path transform="translate(248,173)" d="m0 0h24l15 3 13 5 12 7 11 9-3 5-5-2-8-7-16-8-15-4-8-1h-17l-16 3-13 5-12 7-10 9-8 9-8 16-5 19v15l4 17 7 14 8 10 5 6 13 9 15 7 14 4 8 1h13l17-3 13-5 13-7 8-6 3 2-1 5-13 9-12 6-12 4-20 3-15-1-17-4-17-8-11-8-12-12-9-14-6-14-2-9-1-9v-9l2-14 4-12 7-13 8-10 5-6 10-8 14-8 15-5z" fill="#FEAF6C"/>
<path transform="translate(251,184)" d="m0 0h15l17 3 12 5 14 9 5 4 1 4-3 3-13-10-15-7-14-3h-21l-16 4-14 7-11 9-7 10-6 12-3 12v18l3 13 7 13 7 8v2l4 2 9 7 11 5 13 4 6 1h15l15-3 15-6 9-7 2-2 4 1 2 4-12 9-17 8-13 3-15 1-15-2-15-5-12-7-10-8-9-12-8-16-3-11v-21l3-12 7-14 10-13 13-10 16-8z" fill="#FEAF6D"/>
<path transform="translate(105,287)" d="m0 0 4 4 8 22 8 15 10 14 9 11 12 11 15 11 18 10 17 7 16 5 25 4h27l24-4 16-5 21-9 14-8 9-6 4 2-1 4-17 11-16 8-12 5-24 6-14 2h-37l-19-3-18-5-19-8-16-9-16-12-13-12-10-11-9-13-9-16-2-7-3-10-3-12z" fill="#FEAC68"/>
<path transform="translate(255,196)" d="m0 0h11l16 3 14 7 9 7 2 3-1 5-4-1-11-9-10-5-15-3h-14l-16 4-12 7-4 4h-2l-2 4-6 9-4 9-2 9v13l3 12 7 12 6 7 10 7 11 5 12 3h13l15-4 14-7 7-6 3 1 1 4-12 10-11 5-11 3-15 1-15-2-12-5-11-7-8-8-7-10-5-12-2-10v-10l3-14 7-14 9-10 8-7 12-6 11-3z" fill="#FEAD69"/>
<path transform="translate(127,315)" d="m0 0 5 1 9 14 12 15 2 1v2l4 2 6 5v2l4 2 15 10 21 10 19 6 16 3 10 1h22l20-3 21-6 16-7 17-10 6-4 3 3-2 4-15 10-21 10-19 6-23 4h-31l-23-4-21-7-20-10-17-12-12-11-8-8-5-8-2-4-6-9-3-6z" fill="#FEAD6A"/>
<path transform="translate(1754,83)" d="m0 0h38v85h-1l-1-74-3-7-1-1-22-1h-8v67l1 272h28l111-1 9-4 3-1 1-3h2l2-5 3-6 1 4-6 10-9 6-8 2h-139l-1-2-1-339z" fill="#FFAA63"/>
<path transform="translate(1485,200)" d="m0 0 2 2 1 3 1 105v115l-1 1h-37l-1-1-1-207-5-5-2-3 5 2 4 5 1 3v205h35l-1-115v-94z" fill="#FFAA63"/>
<path transform="translate(252,207)" d="m0 0h16l12 3 8 4 11 9 2 2-1 4-3-4-5-5-11-6-12-3h-20l-9 3-7 4-9 6-5 7-7 19v13l5 13 7 10 7 6 12 6 16 3 13-1 7-3 14-7 3-3-1-7 3 3 1 5-8 7-12 6-12 3h-15l-12-3-11-6-8-7-7-10-5-13v-19l4-12 8-11 9-8 10-5z" fill="#FEAA64"/>
<path transform="translate(1660,241)" d="m0 0 2 2 1 10-1 1-67 1-6 3-7 8-2 6-1 25v102l2 11 5 8 7 4 2 1 13 1h63l25-1 5-2-1 4-2 1h-101l-10-4-7-8-3-9-1-131 4-10 7-8 6-3 13-1h56l-2-7z" fill="#FFAA63"/>
<path transform="translate(1122,356)" d="m0 0h1l-1 7-8 26-1 10 2 10 3 5 3 3v2l4 2 8 3h149l1-7 2 2v7l-2 1h-150l-12-5-7-8-3-9v-13l4-14z" fill="#FFAA63"/>
<path transform="translate(730,384)" d="m0 0 1 4-2 7v11l3 8 9 9 7 2h168v-35l-142-1v-1h144l1 38-1 1h-173l-8-4-7-8-4-9v-7z" fill="#FFAA63"/>
<path transform="translate(931,84)" d="m0 0h38l1 1v84h53l10 3 6 4 7 7 5 11 2 12-2-2-3-11-5-10-5-4-4-4-9-3-7-1-49-1-1-4v-81l-32 1-3 1-1 87h-1z" fill="#FEAA63"/>
<path transform="translate(1589,83)" d="m0 0h16l16 3 13 5 15 10 12 11 10 14 2 6-4-4-7-10v-2l-3-1-4-5-5-4v-2l-4-1-5-5-7-4-12-4-7-2-10-2h-20l-16 4-10 5-11 7-2-1 10-7 12-6 14-4z" fill="#FFAA63"/>
<path transform="translate(838,84)" d="m0 0h91v4h-10v-1l-17-1h-57l-12 2-6 4-7 8-7 16-8 25-4 13-1-4 11-36 8-16 7-9 8-4z" fill="#FFAA63"/>
<path transform="translate(1206,169)" d="m0 0h12l10 4 9 6 4 4v2h-2l-4-5-9-5-12-2h-10l-10 4-6 4-3 5-3 3-1 3h-2l-2 6-4 9-9 27-2 2 2-10 10-29 7-12 10-10 8-4z" fill="#FFAA63"/>
<path transform="translate(1577,399)" d="m0 0h2l2 11 5 8 7 4 2 1 13 1h63l25-1 5-2-1 4-2 1h-101l-10-4-7-8-3-9z" fill="#FFAA63"/>
<path transform="translate(1276,300)" d="m0 0 2 4 3 12v11l-4 6-5 4-7 2h-96v-1l26-1h64l11-3 5-2v-2h2l1-5v-10l-2-9z" fill="#FFAA63"/>
<path transform="translate(1754,83)" d="m0 0h38v85h-1l-1-74-3-7-1-1-22-1h-8v19h-2l-1-19z" fill="#FFAA63"/>
<path transform="translate(1555,144)" d="m0 0 1 2-5 11-3 12h109l14 1 9 5 4 6-1 2-4-5-4-2v-2l-10-2-116-1-2-1v-8l4-12z" fill="#FFAA63"/>
<path transform="translate(1579,269)" d="m0 0 1 3-1 25-1 102h-1l-1-125z" fill="#FEB06F"/>
<path transform="translate(1232,282)" d="m0 0 2 2 3 13v5l-10 2h-42l-2-2 16-1h35l1-1-3-14z" fill="#FFAA63"/>
<path transform="translate(1059,398)" d="m0 0 2 3 6 24 33-1v-10l2 3 2 9-1 1h-37l-2-3-5-21z" fill="#FFAA63"/>
<path transform="translate(1122,356)" d="m0 0h1l-1 7-8 26-1 10 2 10 3 5 3 3v2l4 2 10 4v2l-10-3-6-4-6-8-2-7v-13l4-14z" fill="#FFAA63"/>
<path transform="translate(1297,169)" d="m0 0h36l2 1v10l4-1-1 2h-4l-1-9h-31l-3 2-1 32h-1l-1-35z" fill="#FEAB65"/>
<path transform="translate(1521,132)" d="m0 0 1 3-4 9-4 15-1 10-2 3-12 1v34l12 1v1h-14v-39h14v-7l5-20z" fill="#FFAA63"/>
<path transform="translate(1689,352)" d="m0 0 2 3 2 8v12l-3 8-6 5-3 1h-64v-1l62-1 6-3 4-5 2-8-1-11z" fill="#FFAA63"/>
<path transform="translate(1154,258)" d="m0 0h1l-1 8-4 13-10 30-5 16-4 10-1-3 10-30z" fill="#FFAA63"/>
<path transform="translate(918,88)" d="m0 0h1v35h-69v-1l66-1 1-3z" fill="#FFAA63"/>
<path transform="translate(1366,167)" d="m0 0 15 1 9 3-4 1-3-1h-24l-18 8-2-1 15-8z" fill="#FFAA63"/>
<path transform="translate(1432,170)" d="m0 0h19l10 3 9 5-4 1-2-2-8-3-15-2-15 2-4 2-3-1 8-4z" fill="#FFAA63"/>
<path transform="translate(1167,339)" d="m0 0 2 1-15 46-1-4 5-16 2-9 3-6 3-11z" fill="#FFAA63"/>
<path transform="translate(127,315)" d="m0 0h3l5 9 7 10 4 5v2l-4-2-8-10-7-12z" fill="#EC8336"/>
<path transform="translate(1220,230)" d="m0 0 2 4 4 14 5 22v3h-2l-9-38z" fill="#FEAB65"/>
<path transform="translate(1204,223)" d="m0 0 1 4-10 33-2 7h-1v-8l3-8 2-7 6-20z" fill="#FFAA63"/>
<path transform="translate(730,384)" d="m0 0 1 4-2 7v11l3 8 5 5 5 6-5-2-7-8-4-9v-7z" fill="#FEAB65"/>
<path transform="translate(902,84)" d="m0 0h27v4h-10v-1l-17-1z" fill="#FEA861"/>
<path transform="translate(1754,83)" d="m0 0h16v1l-6 1h-8v19h-2l-1-19z" fill="#FEB06E"/>
<path transform="translate(1742,416)" d="m0 0h1l1 8-3 1-17 1h-18l-1-6 2 4 30-1 4-1z" fill="#FFAA63"/>
<path transform="translate(1112,406)" d="m0 0h2l3 7 4 4v2l4 2 10 4v2l-10-3-6-4-6-8z" fill="#FEAC67"/>
<path transform="translate(1635,140)" d="m0 0 4 2 7 13 3 2 23 1v1h-26l-5-8z" fill="#FFAA63"/>
<path transform="translate(1191,267)" d="m0 0 1 3-9 30-2 2 1-7 4-13 2-8z" fill="#FFAA63"/>
<path transform="translate(918,88)" d="m0 0h1v35h-5l3-5z" fill="#FEAD6A"/>
<path transform="translate(120,327)" d="m0 0 3 1v3h2l7 10-1 3-5-5-6-10z" fill="#EC8336"/>
<path transform="translate(1916,404)" d="m0 0 1 4-6 10-5 4-2-1 5-6h2l2-5z" fill="#FEAC66"/>
<path transform="translate(1470,179)" d="m0 0 7 6 6 9 1 3-3-1-3-6v-2l-3-1-5-5z" fill="#FFAA63"/>
<path transform="translate(105,287)" d="m0 0 2 3v7h2l1 4-2 3-3-9-1-7z" fill="#EC8336"/>
<path transform="translate(136,350)" d="m0 0 4 1 4 5-3 1-4-3z" fill="#ED8639"/>
</svg>
